<?xml version="1.0" encoding="utf-8"?>
<!-- Generator: Adobe Illustrator 16.0.0, SVG Export Plug-In . SVG Version: 6.00 Build 0)  -->
<!DOCTYPE svg PUBLIC "-//W3C//DTD SVG 1.1//EN" "http://www.w3.org/Graphics/SVG/1.1/DTD/svg11.dtd">
<svg version="1.1" id="Layer_1" xmlns="http://www.w3.org/2000/svg" xmlns:xlink="http://www.w3.org/1999/xlink" x="0px" y="0px"
	 width="14px" height="16px" viewBox="0 0 14 16" enable-background="new 0 0 14 16" xml:space="preserve">
<g id="Group_106" transform="translate(-418.526 -150)">
	<path id="Path_34" fill="#FFFFFF" d="M430.881,156.8c-0.015-2.44-1.73-4.539-4.119-5.039V151.2
		c-0.027-0.684-0.604-1.215-1.286-1.188c-0.645,0.026-1.161,0.542-1.187,1.188v0.563c-2.389,0.5-4.105,2.599-4.119,5.039v4.4
		l-1.644,1.6v0.8h14v-0.8l-1.645-1.6V156.8z M425.523,166h0.331c0.537-0.072,0.984-0.446,1.154-0.961
		c0.104-0.198,0.16-0.418,0.164-0.641h-3.293c0.015,0.895,0.749,1.609,1.644,1.6V166z"/>
</g>
</svg>
