<?xml version="1.0" encoding="utf-8"?>
<!-- Generator: Adobe Illustrator 16.0.0, SVG Export Plug-In . SVG Version: 6.00 Build 0)  -->
<!DOCTYPE svg PUBLIC "-//W3C//DTD SVG 1.1//EN" "http://www.w3.org/Graphics/SVG/1.1/DTD/svg11.dtd">
<svg version="1.1" id="Layer_1" xmlns="http://www.w3.org/2000/svg" xmlns:xlink="http://www.w3.org/1999/xlink" x="0px" y="0px"
	 width="16px" height="16px" viewBox="0 0 16 16" enable-background="new 0 0 16 16" xml:space="preserve">
<g id="Group_107" transform="translate(-132.5 -92.574)">
	<path id="Path_35" fill="#FFFFFF" d="M140.5,107.458c-3.802,0-6.884-3.082-6.884-6.884s3.082-6.884,6.884-6.884
		s6.884,3.082,6.884,6.884C147.381,104.375,144.301,107.455,140.5,107.458z M140.5,92.574c-4.418,0-8,3.582-8,8c0,4.418,3.582,8,8,8
		c4.418,0,8-3.582,8-8C148.5,96.156,144.918,92.574,140.5,92.574z"/>
	<path id="Path_36" fill="#FFFFFF" d="M140.263,102.697c-0.448,0-0.811,0.363-0.811,0.811c0,0.448,0.363,0.812,0.811,0.812
		c0.448,0,0.811-0.363,0.811-0.812C141.074,103.06,140.711,102.697,140.263,102.697z"/>
	<path id="Path_37" fill="#FFFFFF" d="M140.405,96.557c-1.421,0-2.074,0.843-2.074,1.411c0,0.332,0.268,0.6,0.599,0.601
		c0.011,0,0.022,0,0.033-0.001c0.569,0,0.337-0.811,1.411-0.811c0.527,0,0.948,0.232,0.948,0.716c0,0.569-0.59,0.895-0.938,1.19
		c-0.478,0.39-0.74,0.984-0.706,1.601c0,0.547,0.148,0.705,0.579,0.705c0.516,0,0.621-0.232,0.621-0.433
		c-0.081-0.517,0.15-1.032,0.589-1.316c0.656-0.439,1.087-1.143,1.181-1.927C142.648,97.303,141.748,96.556,140.405,96.557
		L140.405,96.557z"/>
</g>
</svg>
