<?xml version="1.0" encoding="utf-8"?>
<!-- Generator: Adobe Illustrator 16.0.0, SVG Export Plug-In . SVG Version: 6.00 Build 0)  -->
<!DOCTYPE svg PUBLIC "-//W3C//DTD SVG 1.1//EN" "http://www.w3.org/Graphics/SVG/1.1/DTD/svg11.dtd">
<svg version="1.1" id="Layer_1" xmlns="http://www.w3.org/2000/svg" xmlns:xlink="http://www.w3.org/1999/xlink" x="0px" y="0px"
	 width="12px" height="14px" viewBox="0 0 12 14" enable-background="new 0 0 12 14" xml:space="preserve">
<g id="Group_140" transform="translate(-1482 -71)">
	<g id="Group_104" transform="translate(688 -40)">
		<path id="Path_2" fill="#084496" d="M805.717,115.067c0.154,0.003,0.28-0.119,0.283-0.273l0,0v-2.974
			c-0.009-0.46-0.389-0.827-0.85-0.82h-10.299c-0.46-0.007-0.84,0.359-0.849,0.82v12.36c0.009,0.461,0.389,0.828,0.849,0.82h10.299
			c0.461,0.008,0.841-0.359,0.85-0.82v-2.014c0-0.156-0.127-0.283-0.283-0.283s-0.283,0.127-0.283,0.283v2.014
			c-0.003,0.154-0.129,0.275-0.283,0.273h-10.299c-0.153,0.002-0.28-0.119-0.283-0.273v-12.36c0.003-0.153,0.13-0.275,0.283-0.273
			h10.299c0.154-0.002,0.28,0.12,0.283,0.273v2.974C805.437,114.947,805.563,115.07,805.717,115.067L805.717,115.067
			L805.717,115.067z"/>
	</g>
	<g id="Group_138" transform="translate(201 -5)">
		<path id="Union_1" fill="#BD70FF" d="M1284.93,81.709h-1.808c-0.082-0.001-0.146-0.069-0.145-0.151c0,0,0,0,0-0.001v-3.279
			c-0.001-0.082,0.063-0.149,0.145-0.151l0,0h3.14c0.082,0.002,0.146,0.069,0.145,0.151v3.279c0.001,0.082-0.063,0.15-0.145,0.152
			H1284.93z"/>
		<path id="Path_64" fill="#E6646E" d="M1282.977,87.973v-5.074c0.001-0.085,0.071-0.154,0.157-0.154h3.4
			c0.085,0,0.156,0.068,0.157,0.154v5.074c-0.001,0.085-0.071,0.154-0.157,0.153h-3.4
			C1283.048,88.127,1282.978,88.058,1282.977,87.973L1282.977,87.973z"/>
		<path id="Path_65" fill="#8CB4EB" d="M1287.668,87.973v-9.69c0.001-0.086,0.071-0.155,0.157-0.154h3
			c0.085,0,0.155,0.068,0.157,0.154v9.69c-0.002,0.086-0.072,0.154-0.157,0.154h-3C1287.739,88.127,1287.669,88.059,1287.668,87.973
			z"/>
	</g>
</g>
</svg>
