<?xml version="1.0" encoding="utf-8"?>
<!-- Generator: Adobe Illustrator 16.0.0, SVG Export Plug-In . SVG Version: 6.00 Build 0)  -->
<!DOCTYPE svg PUBLIC "-//W3C//DTD SVG 1.1//EN" "http://www.w3.org/Graphics/SVG/1.1/DTD/svg11.dtd">
<svg version="1.1" id="Layer_1" xmlns="http://www.w3.org/2000/svg" xmlns:xlink="http://www.w3.org/1999/xlink" x="0px" y="0px"
	 width="16px" height="16px" viewBox="0 0 16 16" enable-background="new 0 0 16 16" xml:space="preserve">
<g id="Group_112" transform="translate(-265.277 -164)">
	<path id="Path_56" fill="#FFFFFF" d="M267.302,175.236c-0.773,0.002-1.397,0.631-1.395,1.404c0.003,0.773,0.632,1.398,1.405,1.396
		c0.771-0.003,1.395-0.629,1.395-1.4C268.704,175.861,268.076,175.236,267.302,175.236z"/>
	<path id="Path_57" fill="#FFFFFF" d="M278.463,164.109c-1.447,0.001-2.619,1.175-2.617,2.622c0.001,1.447,1.175,2.619,2.621,2.618
		c1.446-0.001,2.618-1.173,2.619-2.619C281.083,165.283,279.91,164.111,278.463,164.109z"/>
	<g id="Group_111" transform="translate(265.277 164)">
		<g>
			<defs>
				<rect id="SVGID_1_" width="16" height="16"/>
			</defs>
			<use xlink:href="#SVGID_1_"  overflow="visible" fill="#FFFFFF"/>
			<clipPath id="SVGID_2_">
				<use xlink:href="#SVGID_1_"  overflow="visible"/>
			</clipPath>
			<g id="Group_110" clip-path="url(#SVGID_2_)">
				<path id="Path_58" fill="#FFFFFF" d="M14.477,7.773l-1.242,0.009l0.007,0.399c0.018,1.444,0.036,2.808-0.866,3.609
					C11.715,12.38,9.9,12.6,8.643,12.62v-1.829l-2.99,2.572l2.99,2.326v-1.83c1.064-0.017,3.459-0.166,4.559-1.144
					c1.326-1.179,1.3-2.972,1.279-4.552L14.477,7.773z"/>
				<path id="Path_59" fill="#FFFFFF" d="M1.246,7.508C1.226,6.064,1.208,4.702,2.11,3.897C2.77,3.31,4.587,3.091,5.843,3.069V4.9
					l2.992-2.573L5.843,0v1.831C4.781,1.848,2.385,1.995,1.286,2.974c-1.326,1.179-1.3,2.97-1.28,4.551v0.389l1.239-0.01
					L1.246,7.508z"/>
			</g>
		</g>
	</g>
</g>
</svg>
